<svg width="20" height="21" viewBox="0 0 20 21" fill="none" xmlns="http://www.w3.org/2000/svg">
<g id="icon:twitter">
<path id="Vector" d="M19.3275 5.46706C19.2802 5.35285 19.2001 5.25522 19.0973 5.18653C18.9946 5.11783 18.8737 5.08115 18.7501 5.08113H16.3728C16.0404 4.51564 15.5673 4.04578 14.9996 3.71722C14.4319 3.38867 13.7888 3.2126 13.1329 3.20613C12.6443 3.19972 12.1593 3.29111 11.7064 3.47492C11.2536 3.65873 10.8422 3.93124 10.4962 4.27644C10.1402 4.62583 9.85759 5.04288 9.66506 5.50307C9.47253 5.96326 9.37395 6.45729 9.37512 6.95613V7.43191C6.22981 6.60222 3.65715 4.04363 3.62981 4.01628C3.54596 3.93169 3.43968 3.87282 3.32349 3.8466C3.20731 3.82038 3.08605 3.82791 2.974 3.8683C2.86194 3.90869 2.76376 3.98025 2.69102 4.07457C2.61828 4.16888 2.574 4.28202 2.5634 4.40066C2.22668 8.13425 3.31106 10.6327 4.28215 12.071C4.75565 12.782 5.33167 13.4191 5.99153 13.9616C4.80168 15.3311 2.92825 16.0507 2.90793 16.0585C2.81974 16.0915 2.74015 16.144 2.67512 16.2121C2.61008 16.2803 2.56128 16.3622 2.53236 16.4518C2.50343 16.5414 2.49514 16.6364 2.50809 16.7297C2.52104 16.823 2.55491 16.9121 2.60715 16.9905C2.66575 17.078 2.90012 17.385 3.47278 17.6718C4.18059 18.0264 5.11575 18.2061 6.25012 18.2061C11.7712 18.2061 16.3845 13.9546 16.8556 8.48425L19.1923 6.14831C19.2797 6.06086 19.3392 5.94945 19.3632 5.82819C19.3873 5.70693 19.3748 5.58125 19.3275 5.46706ZM15.8118 7.76472C15.7047 7.87214 15.6403 8.01486 15.6306 8.16628C15.3126 13.0952 11.1939 16.9561 6.25012 16.9561C5.42512 16.9561 4.84387 16.8468 4.43606 16.7155C5.33528 16.2272 6.58918 15.3874 7.39543 14.178C7.44275 14.1069 7.475 14.0268 7.49017 13.9428C7.50534 13.8587 7.50312 13.7724 7.48365 13.6893C7.46417 13.6061 7.42786 13.5278 7.37694 13.4592C7.32603 13.3906 7.26159 13.3332 7.18762 13.2905C7.1509 13.2694 3.75715 11.2327 3.75012 5.7905C5.00012 6.80613 7.28528 8.38191 9.89621 8.82097C9.9857 8.83606 10.0774 8.83148 10.1649 8.80755C10.2525 8.78362 10.3337 8.74092 10.4031 8.6824C10.4725 8.6239 10.5283 8.55098 10.5666 8.46873C10.6049 8.38648 10.6249 8.29687 10.6251 8.20613V6.95613C10.6244 6.62273 10.6904 6.29256 10.8192 5.98504C10.948 5.67753 11.137 5.39888 11.3751 5.1655C11.6034 4.93683 11.8751 4.75623 12.1744 4.63439C12.4736 4.51255 12.7942 4.45193 13.1173 4.45613C14.1064 4.46863 15.0306 5.07175 15.4173 5.95691C15.4661 6.06819 15.5462 6.16286 15.6479 6.22932C15.7496 6.29578 15.8685 6.33116 15.99 6.33113H17.24L15.8118 7.76472Z" fill="white"/>
</g>
</svg>
