<svg width="20" height="21" viewBox="0 0 20 21" fill="none" xmlns="http://www.w3.org/2000/svg">
<g id="icon:youtube">
<path id="Vector" d="M12.8469 9.5605L9.09688 7.0605C9.00273 6.99769 8.89329 6.96162 8.78024 6.95614C8.6672 6.95066 8.55479 6.97598 8.45501 7.0294C8.35523 7.08282 8.27183 7.16233 8.21371 7.25945C8.15559 7.35656 8.12493 7.46764 8.125 7.58081V12.5808C8.12493 12.694 8.15559 12.8051 8.21371 12.9022C8.27183 12.9993 8.35523 13.0788 8.45501 13.1322C8.55479 13.1856 8.6672 13.211 8.78024 13.2055C8.89329 13.2 9.00273 13.1639 9.09688 13.1011L12.8469 10.6011C12.9326 10.5441 13.0029 10.4667 13.0515 10.3759C13.1002 10.2852 13.1256 10.1838 13.1256 10.0808C13.1256 9.97784 13.1002 9.87645 13.0515 9.78568C13.0029 9.69491 12.9326 9.61755 12.8469 9.5605ZM9.375 11.4128V8.75269L11.3734 10.0808L9.375 11.4128ZM18.307 5.51206C18.2334 5.22405 18.0924 4.95767 17.8955 4.7349C17.6987 4.51213 17.4517 4.33935 17.175 4.23081C14.4969 3.19644 10.2344 3.20581 10 3.20581C9.76562 3.20581 5.50312 3.19644 2.825 4.23081C2.54825 4.33935 2.30128 4.51213 2.10445 4.7349C1.90762 4.95767 1.76658 5.22405 1.69297 5.51206C1.49063 6.29175 1.25 7.71675 1.25 10.0808C1.25 12.4449 1.49063 13.8699 1.69297 14.6496C1.76647 14.9377 1.90746 15.2043 2.1043 15.4272C2.30113 15.6501 2.54816 15.823 2.825 15.9316C5.39062 16.9214 9.40625 16.9558 9.94844 16.9558H10.0516C10.5938 16.9558 14.6117 16.9214 17.175 15.9316C17.4518 15.823 17.6989 15.6501 17.8957 15.4272C18.0925 15.2043 18.2335 14.9377 18.307 14.6496C18.5094 13.8683 18.75 12.4449 18.75 10.0808C18.75 7.71675 18.5094 6.29175 18.307 5.51206ZM17.0969 14.3402C17.0731 14.436 17.0269 14.5249 16.9621 14.5994C16.8973 14.674 16.8158 14.7321 16.7242 14.7691C14.2516 15.7238 10.0461 15.7066 10.0055 15.7066H10C9.95781 15.7066 5.75547 15.7222 3.28125 14.7691C3.18966 14.7321 3.10814 14.674 3.04337 14.5994C2.97859 14.5249 2.9324 14.436 2.90859 14.3402C2.71875 13.6269 2.5 12.3128 2.5 10.0808C2.5 7.84878 2.71875 6.53472 2.90313 5.82534C2.92649 5.72892 2.97248 5.63945 3.03728 5.56432C3.10208 5.4892 3.18383 5.43058 3.27578 5.39331C5.66016 4.47222 9.65547 4.45581 9.98281 4.45581H10.0039C10.0461 4.45581 14.2523 4.44175 16.7227 5.39331C16.8142 5.43028 16.8958 5.48842 16.9605 5.56297C17.0253 5.63753 17.0715 5.72637 17.0953 5.82222C17.2812 6.53472 17.5 7.84878 17.5 10.0808C17.5 12.3128 17.2812 13.6269 17.0969 14.3363V14.3402Z" fill="white"/>
</g>
</svg>
