<svg width="46" height="47" viewBox="0 0 46 47" fill="none" xmlns="http://www.w3.org/2000/svg">
<g id="vuesax/outline/cloud-add">
<g id="vuesax/outline/cloud-add_2">
<g id="cloud-add">
<path id="Vector" d="M14.2988 37.6244H10.6188C4.98376 37.2219 2.45386 32.8902 2.45386 29.0377C2.45386 25.1852 4.98378 20.8344 10.5229 20.4511C11.3088 20.3744 11.9988 20.9877 12.0563 21.7927C12.1138 22.5786 11.5197 23.2686 10.7147 23.3261C6.99635 23.5944 5.32886 26.3927 5.32886 29.0569C5.32886 31.721 6.99635 34.5194 10.7147 34.7877H14.2988C15.0847 34.7877 15.7363 35.4394 15.7363 36.2252C15.7363 37.011 15.0847 37.6244 14.2988 37.6244Z" fill="#292D32"/>
<path id="Vector_2" d="M31.9506 37.6244C31.9123 37.6244 31.8931 37.6244 31.8548 37.6244C31.069 37.6244 30.3407 36.9727 30.3407 36.1869C30.3407 35.3627 30.954 34.7494 31.759 34.7494C34.1165 34.7494 36.2248 33.9252 37.8731 32.4494C40.8631 29.8427 41.0548 26.0861 40.2498 23.4411C39.4448 20.8152 37.2023 17.8061 33.2923 17.3269C32.6598 17.2502 32.1614 16.7711 32.0464 16.1386C31.2797 11.5386 28.8073 8.35691 25.0506 7.20691C21.179 5.99941 16.6556 7.18774 13.8381 10.1394C11.0972 12.9952 10.4648 17.0011 12.0556 21.4094C12.3239 22.1569 11.9407 22.9811 11.1932 23.2494C10.4457 23.5177 9.62147 23.1344 9.35314 22.3869C7.4173 16.9819 8.29899 11.8069 11.7682 8.16524C15.314 4.44691 21.0065 2.97106 25.894 4.46606C30.379 5.84606 33.5414 9.54523 34.6914 14.6819C38.6014 15.5636 41.7448 18.5344 42.9906 22.6361C44.3514 27.1019 43.1248 31.7019 39.7706 34.6152C37.6431 36.5319 34.8639 37.6244 31.9506 37.6244Z" fill="#292D32"/>
<path id="Vector_3" d="M23 43.2594C19.1475 43.2594 15.5442 41.2086 13.57 37.8928C13.3592 37.5669 13.1483 37.1836 12.9758 36.7619C12.3242 35.4011 11.9791 33.8486 11.9791 32.2386C11.9791 26.1628 16.9241 21.2178 23 21.2178C29.0758 21.2178 34.0208 26.1628 34.0208 32.2386C34.0208 33.8678 33.6758 35.4011 32.9858 36.8194C32.8325 37.1836 32.6217 37.5669 32.3917 37.9311C30.4558 41.2086 26.8525 43.2594 23 43.2594ZM23 24.0928C18.515 24.0928 14.8541 27.7536 14.8541 32.2386C14.8541 33.4269 15.1033 34.5386 15.5825 35.5544C15.7358 35.8803 15.8699 36.1486 16.0233 36.3978C17.4799 38.8703 20.1441 40.3844 22.9808 40.3844C25.8174 40.3844 28.4816 38.8703 29.9191 36.4361C30.0916 36.1486 30.245 35.8803 30.36 35.6119C30.8775 34.5578 31.1266 33.4461 31.1266 32.2578C31.1458 27.7536 27.485 24.0928 23 24.0928Z" fill="#292D32"/>
<path id="Vector_4" d="M21.9073 35.5734C21.5431 35.5734 21.179 35.4393 20.8915 35.1518L18.9939 33.2543C18.4381 32.6984 18.4381 31.7784 18.9939 31.2226C19.5497 30.6668 20.4697 30.6668 21.0256 31.2226L21.9456 32.1426L25.0123 29.3059C25.6064 28.7693 26.5073 28.8076 27.0439 29.3826C27.5806 29.9576 27.5423 30.8776 26.9673 31.4143L22.8848 35.1901C22.5973 35.4393 22.2523 35.5734 21.9073 35.5734Z" fill="#292D32"/>
</g>
</g>
</g>
</svg>
